<svg xmlns="http://www.w3.org/2000/svg" width="400" height="510" viewBox="0 0 400 510" data-palette="56b8e6-6a7de7-acf6f2-8bc3e1930483" role="img" aria-labelledby="hero-mobile-dark-title hero-mobile-dark-desc"><title id="hero-mobile-dark-title">Capsule</title><desc id="hero-mobile-dark-desc">Gate tool callbacks with explicit capability profiles.</desc><defs><linearGradient id="brand" gradientUnits="userSpaceOnUse" x2="400" y2="510"><stop stop-color="#56b8e6"/><stop offset=".6" stop-color="#6a7de7"/><stop offset="1" stop-color="#acf6f2"/></linearGradient><radialGradient id="halo"><stop stop-color="#56b8e6" stop-opacity=".22"/><stop offset="1" stop-color="#050a12" stop-opacity="0"/></radialGradient><filter id="glow"><feGaussianBlur stdDeviation="5"/></filter><pattern id="grid" width="40" height="40" patternUnits="userSpaceOnUse"><path d="M40 0H0V40" fill="none" stroke="#173041" stroke-opacity=".35" stroke-width=".6"/></pattern><marker id="arrow" viewBox="0 0 10 10" refX="8" refY="5" markerWidth="5" markerHeight="5" orient="auto"><path d="m1 1 7 4-7 4" fill="none" stroke="#56b8e6" stroke-width="1.5"/></marker></defs><style>text{font-family:Arial,"Noto Sans",sans-serif}.flow{stroke-dasharray:10 110;animation:flow 6s linear infinite}.pulse{animation:pulse 5s ease-in-out infinite}.turn{transform-box:fill-box;transform-origin:center;animation:turn 36s linear infinite}@keyframes flow{to{stroke-dashoffset:-360}}@keyframes pulse{0%,100%{opacity:.45}50%{opacity:1}}@keyframes turn{to{transform:rotate(360deg)}}@media(prefers-reduced-motion:reduce){*{animation:none!important;transform:none!important}.flow{display:none}}</style><rect width="400" height="510" rx="16" fill="#050a12"/><rect width="400" height="510" rx="16" fill="url(#grid)"/><ellipse cx="252.0" cy="219.29999999999998" rx="200.0" ry="357.0" fill="url(#halo)"/><circle cx="395.37" cy="446.42" r="1.09" fill="#6a7de7" opacity="0.61"/><circle cx="275.12" cy="235.17" r="1.35" fill="#56b8e6" opacity="0.30"/><circle cx="258.80" cy="241.24" r="1.21" fill="#56b8e6" opacity="0.33"/><circle cx="366.13" cy="458.25" r="0.81" fill="#6a7de7" opacity="0.25"/><circle cx="260.08" cy="450.50" r="1.00" fill="#56b8e6" opacity="0.23"/><circle cx="360.94" cy="447.99" r="1.51" fill="#56b8e6" opacity="0.31"/><circle cx="126.88" cy="274.31" r="1.39" fill="#6a7de7" opacity="0.75"/><circle cx="199.06" cy="451.33" r="1.39" fill="#56b8e6" opacity="0.44"/><circle cx="304.53" cy="454.31" r="1.10" fill="#56b8e6" opacity="0.37"/><circle cx="326.79" cy="245.45" r="0.61" fill="#6a7de7" opacity="0.27"/><circle cx="329.72" cy="461.70" r="0.66" fill="#56b8e6" opacity="0.51"/><circle cx="371.57" cy="280.55" r="1.38" fill="#56b8e6" opacity="0.68"/><circle cx="233.68" cy="492.27" r="1.20" fill="#6a7de7" opacity="0.68"/><circle cx="145.83" cy="473.46" r="0.76" fill="#56b8e6" opacity="0.28"/><circle cx="143.75" cy="273.78" r="1.36" fill="#56b8e6" opacity="0.75"/><circle cx="162.99" cy="316.56" r="1.34" fill="#6a7de7" opacity="0.45"/><circle cx="164.88" cy="381.43" r="1.66" fill="#56b8e6" opacity="0.23"/><circle cx="397.30" cy="331.10" r="0.61" fill="#56b8e6" opacity="0.74"/><circle cx="348.72" cy="481.44" r="1.19" fill="#6a7de7" opacity="0.32"/><circle cx="95.38" cy="336.58" r="1.06" fill="#56b8e6" opacity="0.57"/><circle cx="402.03" cy="445.51" r="1.46" fill="#56b8e6" opacity="0.27"/><circle cx="158.54" cy="252.43" r="0.66" fill="#6a7de7" opacity="0.60"/><circle cx="296.53" cy="493.79" r="1.67" fill="#56b8e6" opacity="0.63"/><circle cx="168.90" cy="238.53" r="0.92" fill="#56b8e6" opacity="0.24"/><circle cx="324.02" cy="365.72" r="0.89" fill="#6a7de7" opacity="0.52"/><circle cx="411.58" cy="292.71" r="1.31" fill="#56b8e6" opacity="0.23"/><circle cx="61.25" cy="358.37" r="0.88" fill="#56b8e6" opacity="0.76"/><circle cx="398.08" cy="435.58" r="0.93" fill="#6a7de7" opacity="0.60"/><circle cx="137.70" cy="457.27" r="1.05" fill="#56b8e6" opacity="0.21"/><circle cx="96.88" cy="352.22" r="1.07" fill="#56b8e6" opacity="0.23"/><circle cx="112.78" cy="424.65" r="1.17" fill="#6a7de7" opacity="0.73"/><circle cx="188.48" cy="257.64" r="1.13" fill="#56b8e6" opacity="0.63"/><circle cx="372.49" cy="450.23" r="1.12" fill="#56b8e6" opacity="0.30"/><circle cx="276.50" cy="377.50" r="0.96" fill="#6a7de7" opacity="0.79"/><circle cx="295.84" cy="265.49" r="0.87" fill="#56b8e6" opacity="0.65"/><circle cx="283.78" cy="494.11" r="1.15" fill="#56b8e6" opacity="0.34"/><circle cx="168.55" cy="240.82" r="1.44" fill="#6a7de7" opacity="0.58"/><circle cx="82.96" cy="388.44" r="1.37" fill="#56b8e6" opacity="0.32"/><circle cx="270.03" cy="476.05" r="0.66" fill="#56b8e6" opacity="0.61"/><circle cx="97.42" cy="436.42" r="1.04" fill="#6a7de7" opacity="0.61"/><circle cx="218.10" cy="238.88" r="1.23" fill="#56b8e6" opacity="0.41"/><circle cx="405.30" cy="296.66" r="1.61" fill="#56b8e6" opacity="0.22"/><circle cx="422.37" cy="303.14" r="1.32" fill="#6a7de7" opacity="0.71"/><circle cx="240.20" cy="499.51" r="1.67" fill="#56b8e6" opacity="0.53"/><circle cx="351.34" cy="395.80" r="0.67" fill="#56b8e6" opacity="0.70"/><circle cx="206.72" cy="475.39" r="1.26" fill="#6a7de7" opacity="0.50"/><circle cx="138.93" cy="287.97" r="1.34" fill="#56b8e6" opacity="0.29"/><circle cx="165.02" cy="293.46" r="0.95" fill="#56b8e6" opacity="0.56"/><circle cx="83.28" cy="294.86" r="1.24" fill="#6a7de7" opacity="0.69"/><circle cx="386.83" cy="333.05" r="1.20" fill="#56b8e6" opacity="0.30"/><circle cx="191.15" cy="494.86" r="0.60" fill="#56b8e6" opacity="0.77"/><circle cx="279.56" cy="330.28" r="1.15" fill="#6a7de7" opacity="0.26"/><circle cx="230.31" cy="496.83" r="0.81" fill="#56b8e6" opacity="0.23"/><circle cx="434.43" cy="389.22" r="0.98" fill="#56b8e6" opacity="0.58"/><circle cx="287.07" cy="232.09" r="0.60" fill="#6a7de7" opacity="0.77"/><circle cx="178.05" cy="253.87" r="1.57" fill="#56b8e6" opacity="0.48"/><circle cx="378.25" cy="358.89" r="1.22" fill="#56b8e6" opacity="0.47"/><circle cx="157.04" cy="240.41" r="1.10" fill="#6a7de7" opacity="0.55"/><circle cx="228.47" cy="374.05" r="1.33" fill="#56b8e6" opacity="0.55"/><circle cx="155.86" cy="473.52" r="1.55" fill="#56b8e6" opacity="0.36"/><circle cx="97.98" cy="428.28" r="0.95" fill="#6a7de7" opacity="0.80"/><circle cx="422.98" cy="342.72" r="1.04" fill="#56b8e6" opacity="0.28"/><circle cx="267.91" cy="295.07" r="0.91" fill="#56b8e6" opacity="0.57"/><circle cx="68.75" cy="366.82" r="1.68" fill="#6a7de7" opacity="0.59"/><circle cx="437.85" cy="380.03" r="0.88" fill="#56b8e6" opacity="0.45"/><circle cx="200.44" cy="319.20" r="1.23" fill="#56b8e6" opacity="0.76"/><circle cx="360.01" cy="476.13" r="0.64" fill="#6a7de7" opacity="0.74"/><circle cx="105.56" cy="366.39" r="1.10" fill="#56b8e6" opacity="0.70"/><circle cx="251.64" cy="501.99" r="1.45" fill="#56b8e6" opacity="0.33"/><circle cx="152.93" cy="389.59" r="0.77" fill="#6a7de7" opacity="0.38"/><circle cx="139.88" cy="261.27" r="0.80" fill="#56b8e6" opacity="0.41"/><circle cx="229.59" cy="374.91" r="0.95" fill="#56b8e6" opacity="0.75"/><circle cx="312.16" cy="489.17" r="1.20" fill="#6a7de7" opacity="0.64"/><circle cx="171.94" cy="342.26" r="1.01" fill="#56b8e6" opacity="0.65"/><circle cx="398.81" cy="275.01" r="1.49" fill="#56b8e6" opacity="0.76"/><circle cx="156.37" cy="258.16" r="0.72" fill="#6a7de7" opacity="0.23"/><circle cx="309.30" cy="409.34" r="0.73" fill="#56b8e6" opacity="0.26"/><circle cx="336.78" cy="424.79" r="1.55" fill="#56b8e6" opacity="0.40"/><circle cx="359.60" cy="462.84" r="1.31" fill="#6a7de7" opacity="0.39"/><circle cx="384.61" cy="457.40" r="1.39" fill="#56b8e6" opacity="0.44"/><circle cx="62.19" cy="383.17" r="1.43" fill="#56b8e6" opacity="0.57"/><circle cx="92.84" cy="332.07" r="0.77" fill="#6a7de7" opacity="0.74"/><circle cx="238.24" cy="230.02" r="0.72" fill="#56b8e6" opacity="0.28"/><circle cx="229.78" cy="373.29" r="1.27" fill="#56b8e6" opacity="0.48"/><circle cx="284.25" cy="235.17" r="0.72" fill="#6a7de7" opacity="0.74"/><circle cx="408.75" cy="329.56" r="1.59" fill="#56b8e6" opacity="0.46"/><circle cx="241.34" cy="346.93" r="1.63" fill="#56b8e6" opacity="0.79"/><circle cx="253.54" cy="230.54" r="1.26" fill="#6a7de7" opacity="0.54"/><circle cx="307.12" cy="490.88" r="1.60" fill="#56b8e6" opacity="0.58"/><circle cx="188.02" cy="368.96" r="1.56" fill="#56b8e6" opacity="0.66"/><circle cx="340.01" cy="349.15" r="1.52" fill="#6a7de7" opacity="0.20"/><circle cx="216.55" cy="379.76" r="0.95" fill="#56b8e6" opacity="0.77"/><circle cx="85.79" cy="299.17" r="0.70" fill="#56b8e6" opacity="0.76"/><circle cx="404.98" cy="442.55" r="0.97" fill="#6a7de7" opacity="0.63"/><circle cx="220.45" cy="496.99" r="0.84" fill="#56b8e6" opacity="0.23"/><circle cx="354.68" cy="454.90" r="1.45" fill="#56b8e6" opacity="0.49"/><circle cx="165.36" cy="398.20" r="1.44" fill="#6a7de7" opacity="0.22"/><circle cx="219.13" cy="496.02" r="1.45" fill="#56b8e6" opacity="0.39"/><circle cx="290.17" cy="259.50" r="1.47" fill="#56b8e6" opacity="0.48"/><circle cx="173.18" cy="460.42" r="1.16" fill="#6a7de7" opacity="0.56"/><circle cx="156.55" cy="460.00" r="1.13" fill="#56b8e6" opacity="0.24"/><circle cx="223.64" cy="233.92" r="1.20" fill="#56b8e6" opacity="0.29"/><circle cx="282.94" cy="480.20" r="0.64" fill="#6a7de7" opacity="0.63"/><circle cx="130.59" cy="456.26" r="1.58" fill="#56b8e6" opacity="0.75"/><circle cx="209.22" cy="468.81" r="1.70" fill="#56b8e6" opacity="0.73"/><circle cx="236.31" cy="368.88" r="0.64" fill="#6a7de7" opacity="0.77"/><circle cx="426.39" cy="391.64" r="0.69" fill="#56b8e6" opacity="0.31"/><circle cx="148.48" cy="245.93" r="0.65" fill="#56b8e6" opacity="0.40"/><circle cx="393.81" cy="324.20" r="0.99" fill="#6a7de7" opacity="0.27"/><circle cx="432.69" cy="333.81" r="0.92" fill="#56b8e6" opacity="0.52"/><circle cx="96.09" cy="442.38" r="1.61" fill="#56b8e6" opacity="0.33"/><circle cx="420.37" cy="421.27" r="1.37" fill="#6a7de7" opacity="0.25"/><circle cx="139.78" cy="260.51" r="1.15" fill="#56b8e6" opacity="0.54"/><circle cx="368.09" cy="342.96" r="1.07" fill="#56b8e6" opacity="0.51"/><circle cx="142.97" cy="246.36" r="1.05" fill="#6a7de7" opacity="0.66"/><circle cx="152.59" cy="304.15" r="1.55" fill="#56b8e6" opacity="0.31"/><circle cx="146.79" cy="442.90" r="0.74" fill="#56b8e6" opacity="0.42"/><circle cx="95.43" cy="383.80" r="0.94" fill="#6a7de7" opacity="0.28"/><circle cx="425.29" cy="347.08" r="1.54" fill="#56b8e6" opacity="0.49"/><circle cx="103.90" cy="361.78" r="1.63" fill="#56b8e6" opacity="0.31"/><circle cx="168.53" cy="487.78" r="1.54" fill="#6a7de7" opacity="0.35"/><circle cx="148.82" cy="434.92" r="0.77" fill="#56b8e6" opacity="0.27"/><circle cx="437.78" cy="362.76" r="1.39" fill="#56b8e6" opacity="0.28"/><circle cx="315.73" cy="398.27" r="1.68" fill="#6a7de7" opacity="0.26"/><circle cx="76.20" cy="401.42" r="1.65" fill="#56b8e6" opacity="0.48"/><circle cx="196.37" cy="249.77" r="0.66" fill="#56b8e6" opacity="0.49"/><circle cx="391.56" cy="396.77" r="0.66" fill="#6a7de7" opacity="0.66"/><circle cx="409.46" cy="313.61" r="1.12" fill="#56b8e6" opacity="0.61"/><circle cx="387.44" cy="275.20" r="0.86" fill="#56b8e6" opacity="0.69"/><circle cx="208.46" cy="463.51" r="0.87" fill="#6a7de7" opacity="0.28"/><circle cx="254.24" cy="499.78" r="1.62" fill="#56b8e6" opacity="0.20"/><circle cx="436.88" cy="377.93" r="0.80" fill="#56b8e6" opacity="0.76"/><circle cx="299.98" cy="315.46" r="1.57" fill="#6a7de7" opacity="0.50"/><circle cx="334.36" cy="428.67" r="0.88" fill="#56b8e6" opacity="0.28"/><circle cx="301.83" cy="229.44" r="0.73" fill="#56b8e6" opacity="0.32"/><circle cx="102.71" cy="445.19" r="0.70" fill="#6a7de7" opacity="0.51"/><circle cx="419.12" cy="298.45" r="1.48" fill="#56b8e6" opacity="0.53"/><circle cx="217.67" cy="231.99" r="0.73" fill="#56b8e6" opacity="0.21"/><circle cx="402.96" cy="398.66" r="0.90" fill="#6a7de7" opacity="0.38"/><circle cx="422.24" cy="319.50" r="1.62" fill="#56b8e6" opacity="0.74"/><circle cx="207.36" cy="227.96" r="1.54" fill="#56b8e6" opacity="0.21"/><circle cx="420.62" cy="304.77" r="1.51" fill="#6a7de7" opacity="0.64"/><circle cx="251.17" cy="225.34" r="1.53" fill="#56b8e6" opacity="0.68"/><circle cx="96.86" cy="357.56" r="1.18" fill="#56b8e6" opacity="0.78"/><circle cx="225.74" cy="315.30" r="0.64" fill="#6a7de7" opacity="0.47"/><circle cx="188.79" cy="463.53" r="0.86" fill="#56b8e6" opacity="0.37"/><circle cx="215.84" cy="454.29" r="1.62" fill="#56b8e6" opacity="0.35"/><circle cx="395.58" cy="310.37" r="1.22" fill="#6a7de7" opacity="0.63"/><circle cx="253.66" cy="253.22" r="0.80" fill="#56b8e6" opacity="0.23"/><circle cx="392.45" cy="393.02" r="0.95" fill="#56b8e6" opacity="0.58"/><circle cx="433.07" cy="324.94" r="0.65" fill="#6a7de7" opacity="0.76"/><circle cx="413.28" cy="412.02" r="0.98" fill="#56b8e6" opacity="0.73"/><circle cx="217.29" cy="280.21" r="0.72" fill="#56b8e6" opacity="0.24"/><circle cx="324.80" cy="470.53" r="0.67" fill="#6a7de7" opacity="0.43"/><circle cx="382.87" cy="264.12" r="0.75" fill="#56b8e6" opacity="0.55"/><circle cx="293.18" cy="494.31" r="1.56" fill="#56b8e6" opacity="0.71"/><circle cx="72.57" cy="394.77" r="0.98" fill="#6a7de7" opacity="0.44"/><circle cx="86.53" cy="311.10" r="1.11" fill="#56b8e6" opacity="0.77"/><circle cx="408.73" cy="312.23" r="1.10" fill="#56b8e6" opacity="0.48"/><circle cx="122.54" cy="447.38" r="1.51" fill="#6a7de7" opacity="0.70"/><circle cx="183.11" cy="492.17" r="1.11" fill="#56b8e6" opacity="0.60"/><circle cx="145.95" cy="452.95" r="1.39" fill="#56b8e6" opacity="0.55"/><circle cx="181.25" cy="234.24" r="1.02" fill="#6a7de7" opacity="0.67"/><circle cx="405.56" cy="282.53" r="0.77" fill="#56b8e6" opacity="0.33"/><circle cx="382.86" cy="344.79" r="1.03" fill="#56b8e6" opacity="0.37"/><circle cx="167.67" cy="482.42" r="1.48" fill="#6a7de7" opacity="0.70"/><circle cx="311.74" cy="491.32" r="1.59" fill="#56b8e6" opacity="0.20"/><circle cx="302.70" cy="244.19" r="1.61" fill="#56b8e6" opacity="0.73"/><circle cx="427.39" cy="398.51" r="1.70" fill="#6a7de7" opacity="0.71"/><circle cx="352.45" cy="477.53" r="1.10" fill="#56b8e6" opacity="0.32"/><circle cx="319.37" cy="453.83" r="1.15" fill="#56b8e6" opacity="0.70"/><circle cx="197.55" cy="264.79" r="1.24" fill="#6a7de7" opacity="0.65"/><circle cx="406.32" cy="401.30" r="1.52" fill="#56b8e6" opacity="0.42"/><circle cx="152.73" cy="476.10" r="1.07" fill="#56b8e6" opacity="0.23"/><circle cx="253.83" cy="473.31" r="1.59" fill="#6a7de7" opacity="0.38"/><circle cx="66.79" cy="387.92" r="0.91" fill="#56b8e6" opacity="0.73"/><circle cx="323.51" cy="386.38" r="1.36" fill="#56b8e6" opacity="0.37"/><circle cx="141.35" cy="282.30" r="1.64" fill="#6a7de7" opacity="0.67"/><circle cx="364.75" cy="344.97" r="1.52" fill="#56b8e6" opacity="0.72"/><circle cx="180.55" cy="408.01" r="0.93" fill="#56b8e6" opacity="0.33"/><circle cx="377.70" cy="449.20" r="1.12" fill="#6a7de7" opacity="0.23"/><circle cx="409.60" cy="353.49" r="1.32" fill="#56b8e6" opacity="0.27"/><circle cx="372.38" cy="264.56" r="0.84" fill="#56b8e6" opacity="0.79"/><circle cx="336.60" cy="486.52" r="1.06" fill="#6a7de7" opacity="0.42"/><circle cx="175.72" cy="234.47" r="1.67" fill="#56b8e6" opacity="0.49"/><circle cx="323.00" cy="359.05" r="0.91" fill="#56b8e6" opacity="0.73"/><circle cx="64.84" cy="350.49" r="1.06" fill="#6a7de7" opacity="0.20"/><circle cx="361.50" cy="248.72" r="1.30" fill="#56b8e6" opacity="0.38"/><circle cx="303.45" cy="327.60" r="0.85" fill="#56b8e6" opacity="0.32"/><circle cx="389.91" cy="269.44" r="1.41" fill="#6a7de7" opacity="0.62"/><circle cx="241.92" cy="275.12" r="1.18" fill="#56b8e6" opacity="0.62"/><circle cx="282.33" cy="466.39" r="0.70" fill="#56b8e6" opacity="0.65"/><circle cx="302.04" cy="419.34" r="0.71" fill="#6a7de7" opacity="0.26"/><circle cx="142.95" cy="286.72" r="1.58" fill="#56b8e6" opacity="0.38"/><circle cx="122.73" cy="459.08" r="0.68" fill="#56b8e6" opacity="0.50"/><circle cx="437.79" cy="380.18" r="1.10" fill="#6a7de7" opacity="0.36"/><circle cx="95.12" cy="343.35" r="1.27" fill="#56b8e6" opacity="0.75"/><circle cx="238.40" cy="253.52" r="0.81" fill="#56b8e6" opacity="0.72"/><circle cx="373.27" cy="360.99" r="1.03" fill="#6a7de7" opacity="0.59"/><circle cx="287.04" cy="465.99" r="1.55" fill="#56b8e6" opacity="0.41"/><circle cx="95.71" cy="409.49" r="0.72" fill="#56b8e6" opacity="0.54"/><circle cx="203.95" cy="480.46" r="1.68" fill="#6a7de7" opacity="0.43"/><circle cx="175.10" cy="236.96" r="1.37" fill="#56b8e6" opacity="0.29"/><circle cx="87.66" cy="350.78" r="0.82" fill="#56b8e6" opacity="0.68"/><circle cx="85.75" cy="291.95" r="0.69" fill="#6a7de7" opacity="0.58"/><circle cx="285.85" cy="404.42" r="0.85" fill="#56b8e6" opacity="0.43"/><circle cx="434.65" cy="378.64" r="0.68" fill="#56b8e6" opacity="0.66"/><circle cx="357.78" cy="413.95" r="0.69" fill="#6a7de7" opacity="0.28"/><circle cx="182.83" cy="457.11" r="0.95" fill="#56b8e6" opacity="0.48"/><circle cx="212.98" cy="452.73" r="0.83" fill="#56b8e6" opacity="0.53"/><circle cx="250.31" cy="307.08" r="1.43" fill="#6a7de7" opacity="0.43"/><circle cx="107.67" cy="269.35" r="0.86" fill="#56b8e6" opacity="0.70"/><circle cx="253.23" cy="261.59" r="1.21" fill="#56b8e6" opacity="0.33"/><circle cx="210.02" cy="497.27" r="1.43" fill="#6a7de7" opacity="0.69"/><circle cx="354.40" cy="402.00" r="1.33" fill="#56b8e6" opacity="0.44"/><circle cx="104.95" cy="360.39" r="0.66" fill="#56b8e6" opacity="0.45"/><circle cx="343.21" cy="421.61" r="0.72" fill="#6a7de7" opacity="0.73"/><circle cx="398.52" cy="287.52" r="1.08" fill="#56b8e6" opacity="0.22"/><circle cx="389.93" cy="450.14" r="0.88" fill="#56b8e6" opacity="0.30"/><circle cx="146.10" cy="272.37" r="1.25" fill="#6a7de7" opacity="0.35"/><circle cx="316.43" cy="492.74" r="0.65" fill="#56b8e6" opacity="0.77"/><circle cx="153.04" cy="255.45" r="1.47" fill="#56b8e6" opacity="0.47"/><circle cx="273.52" cy="436.86" r="1.23" fill="#6a7de7" opacity="0.61"/><circle cx="235.99" cy="449.02" r="0.60" fill="#56b8e6" opacity="0.23"/><circle cx="220.31" cy="301.59" r="1.55" fill="#56b8e6" opacity="0.34"/><circle cx="330.07" cy="280.08" r="1.33" fill="#6a7de7" opacity="0.55"/><circle cx="200.58" cy="333.14" r="1.05" fill="#56b8e6" opacity="0.54"/><circle cx="263.17" cy="248.18" r="0.96" fill="#56b8e6" opacity="0.24"/><circle cx="340.14" cy="252.16" r="1.51" fill="#6a7de7" opacity="0.61"/><circle cx="289.33" cy="336.82" r="1.46" fill="#56b8e6" opacity="0.60"/><circle cx="217.03" cy="421.04" r="0.74" fill="#56b8e6" opacity="0.59"/><circle cx="98.42" cy="327.76" r="1.01" fill="#6a7de7" opacity="0.45"/><circle cx="83.49" cy="429.33" r="1.56" fill="#56b8e6" opacity="0.74"/><circle cx="380.20" cy="445.49" r="0.79" fill="#56b8e6" opacity="0.62"/><circle cx="428.57" cy="315.85" r="1.70" fill="#6a7de7" opacity="0.66"/><circle cx="148.26" cy="442.64" r="1.31" fill="#56b8e6" opacity="0.23"/><circle cx="402.80" cy="421.90" r="1.14" fill="#56b8e6" opacity="0.28"/><circle cx="219.78" cy="281.26" r="1.05" fill="#6a7de7" opacity="0.20"/><circle cx="250.10" cy="233.76" r="1.50" fill="#56b8e6" opacity="0.55"/><circle cx="118.13" cy="409.34" r="0.95" fill="#56b8e6" opacity="0.40"/><circle cx="268.04" cy="362.36" r="1.11" fill="#6a7de7" opacity="0.79"/><circle cx="132.92" cy="423.06" r="1.09" fill="#56b8e6" opacity="0.77"/><circle cx="380.79" cy="364.75" r="0.65" fill="#56b8e6" opacity="0.63"/><circle cx="267.93" cy="353.34" r="0.78" fill="#6a7de7" opacity="0.74"/><circle cx="371.22" cy="261.16" r="1.29" fill="#56b8e6" opacity="0.40"/><circle cx="68.45" cy="402.81" r="0.68" fill="#56b8e6" opacity="0.41"/><circle cx="173.56" cy="278.75" r="1.00" fill="#6a7de7" opacity="0.35"/><circle cx="430.33" cy="327.82" r="1.67" fill="#56b8e6" opacity="0.69"/><circle cx="412.50" cy="289.55" r="0.76" fill="#56b8e6" opacity="0.64"/><circle cx="69.72" cy="352.91" r="0.76" fill="#6a7de7" opacity="0.53"/><circle cx="83.41" cy="328.82" r="1.15" fill="#56b8e6" opacity="0.31"/><circle cx="330.91" cy="488.47" r="1.29" fill="#56b8e6" opacity="0.54"/><circle cx="223.53" cy="229.59" r="1.66" fill="#6a7de7" opacity="0.77"/><circle cx="368.38" cy="304.49" r="1.39" fill="#56b8e6" opacity="0.76"/><circle cx="402.82" cy="285.67" r="1.15" fill="#56b8e6" opacity="0.46"/><circle cx="110.94" cy="400.93" r="1.08" fill="#6a7de7" opacity="0.23"/><circle cx="153.39" cy="475.97" r="0.92" fill="#56b8e6" opacity="0.48"/><circle cx="297.40" cy="422.14" r="1.11" fill="#56b8e6" opacity="0.51"/><circle cx="246.77" cy="463.91" r="1.18" fill="#6a7de7" opacity="0.75"/><circle cx="233.52" cy="501.32" r="1.70" fill="#56b8e6" opacity="0.66"/><circle cx="403.66" cy="332.93" r="1.05" fill="#56b8e6" opacity="0.40"/><circle cx="179.08" cy="362.46" r="1.39" fill="#6a7de7" opacity="0.29"/><circle cx="410.88" cy="369.04" r="1.17" fill="#56b8e6" opacity="0.73"/><circle cx="254.52" cy="435.11" r="0.71" fill="#56b8e6" opacity="0.25"/><circle cx="243.97" cy="499.09" r="0.95" fill="#6a7de7" opacity="0.70"/><circle cx="118.83" cy="382.08" r="1.64" fill="#56b8e6" opacity="0.64"/><circle cx="396.35" cy="275.72" r="1.30" fill="#56b8e6" opacity="0.28"/><circle cx="324.14" cy="441.59" r="0.89" fill="#6a7de7" opacity="0.45"/><circle cx="73.78" cy="310.80" r="1.14" fill="#56b8e6" opacity="0.67"/><circle cx="185.97" cy="263.93" r="1.47" fill="#56b8e6" opacity="0.79"/><circle cx="405.67" cy="296.79" r="1.38" fill="#6a7de7" opacity="0.73"/><circle cx="317.27" cy="405.54" r="0.78" fill="#56b8e6" opacity="0.61"/><circle cx="67.08" cy="376.18" r="1.66" fill="#56b8e6" opacity="0.53"/><circle cx="421.34" cy="418.49" r="1.11" fill="#6a7de7" opacity="0.52"/><circle cx="244.48" cy="483.43" r="0.66" fill="#56b8e6" opacity="0.74"/><circle cx="254.91" cy="500.65" r="1.00" fill="#56b8e6" opacity="0.37"/><circle cx="168.95" cy="236.28" r="1.53" fill="#6a7de7" opacity="0.63"/><circle cx="256.88" cy="255.23" r="1.33" fill="#56b8e6" opacity="0.67"/><circle cx="74.56" cy="405.03" r="1.22" fill="#56b8e6" opacity="0.23"/><circle cx="314.34" cy="318.23" r="1.26" fill="#6a7de7" opacity="0.41"/><circle cx="105.73" cy="421.70" r="1.62" fill="#56b8e6" opacity="0.60"/><circle cx="332.03" cy="410.13" r="0.63" fill="#56b8e6" opacity="0.47"/><circle cx="308.64" cy="231.23" r="0.85" fill="#6a7de7" opacity="0.70"/><circle cx="185.32" cy="482.45" r="0.73" fill="#56b8e6" opacity="0.28"/><circle cx="430.65" cy="343.41" r="0.72" fill="#56b8e6" opacity="0.32"/><circle cx="343.50" cy="303.89" r="1.46" fill="#6a7de7" opacity="0.20"/><circle cx="83.76" cy="345.88" r="0.93" fill="#56b8e6" opacity="0.70"/><circle cx="139.62" cy="333.35" r="0.69" fill="#56b8e6" opacity="0.60"/><circle cx="302.70" cy="228.40" r="1.57" fill="#6a7de7" opacity="0.48"/><circle cx="109.87" cy="296.48" r="1.57" fill="#56b8e6" opacity="0.59"/><circle cx="408.59" cy="423.08" r="1.39" fill="#56b8e6" opacity="0.63"/><circle cx="274.53" cy="359.02" r="0.92" fill="#6a7de7" opacity="0.44"/><circle cx="119.14" cy="391.66" r="0.67" fill="#56b8e6" opacity="0.68"/><circle cx="231.50" cy="241.31" r="1.39" fill="#56b8e6" opacity="0.67"/><circle cx="130.96" cy="464.95" r="1.35" fill="#6a7de7" opacity="0.23"/><circle cx="327.45" cy="420.53" r="1.69" fill="#56b8e6" opacity="0.31"/><circle cx="381.17" cy="295.71" r="0.69" fill="#56b8e6" opacity="0.55"/><circle cx="232.74" cy="439.42" r="0.68" fill="#6a7de7" opacity="0.39"/><circle cx="230.10" cy="496.08" r="0.81" fill="#56b8e6" opacity="0.67"/><circle cx="125.16" cy="370.99" r="0.98" fill="#56b8e6" opacity="0.33"/><circle cx="366.08" cy="320.98" r="1.68" fill="#6a7de7" opacity="0.71"/><circle cx="123.08" cy="305.05" r="1.61" fill="#56b8e6" opacity="0.28"/><circle cx="348.73" cy="336.20" r="0.72" fill="#56b8e6" opacity="0.68"/><circle cx="353.71" cy="432.42" r="1.33" fill="#6a7de7" opacity="0.25"/><circle cx="420.32" cy="408.82" r="1.47" fill="#56b8e6" opacity="0.23"/><circle cx="201.92" cy="469.29" r="1.58" fill="#56b8e6" opacity="0.69"/><circle cx="242.72" cy="263.86" r="1.65" fill="#6a7de7" opacity="0.34"/><circle cx="278.44" cy="274.64" r="0.84" fill="#56b8e6" opacity="0.23"/><circle cx="346.55" cy="302.49" r="0.87" fill="#56b8e6" opacity="0.54"/><circle cx="223.33" cy="441.34" r="1.42" fill="#6a7de7" opacity="0.23"/><circle cx="305.96" cy="489.27" r="0.93" fill="#56b8e6" opacity="0.36"/><circle cx="187.28" cy="296.06" r="1.55" fill="#56b8e6" opacity="0.71"/><circle cx="265.38" cy="234.80" r="1.09" fill="#6a7de7" opacity="0.43"/><circle cx="269.89" cy="315.18" r="1.02" fill="#56b8e6" opacity="0.26"/><circle cx="208.42" cy="498.54" r="1.09" fill="#56b8e6" opacity="0.48"/><circle cx="233.92" cy="269.63" r="1.27" fill="#6a7de7" opacity="0.37"/><circle cx="236.85" cy="500.63" r="1.68" fill="#56b8e6" opacity="0.48"/><circle cx="300.11" cy="414.17" r="1.69" fill="#56b8e6" opacity="0.56"/><circle cx="234.43" cy="416.21" r="1.26" fill="#6a7de7" opacity="0.43"/><circle cx="111.05" cy="452.25" r="1.53" fill="#56b8e6" opacity="0.27"/><circle cx="80.04" cy="417.08" r="1.25" fill="#56b8e6" opacity="0.25"/><circle cx="292.69" cy="451.24" r="1.48" fill="#6a7de7" opacity="0.79"/><circle cx="289.25" cy="233.62" r="1.20" fill="#56b8e6" opacity="0.59"/><circle cx="99.61" cy="308.44" r="0.66" fill="#56b8e6" opacity="0.34"/><circle cx="395.28" cy="272.07" r="0.92" fill="#6a7de7" opacity="0.40"/><circle cx="220.69" cy="404.93" r="1.65" fill="#56b8e6" opacity="0.47"/><circle cx="342.52" cy="347.48" r="1.18" fill="#56b8e6" opacity="0.47"/><circle cx="121.81" cy="401.81" r="1.17" fill="#6a7de7" opacity="0.30"/><circle cx="406.10" cy="283.71" r="1.04" fill="#56b8e6" opacity="0.73"/><circle cx="241.56" cy="421.29" r="1.03" fill="#56b8e6" opacity="0.77"/><circle cx="204.18" cy="260.89" r="0.95" fill="#6a7de7" opacity="0.40"/><circle cx="260.17" cy="501.40" r="0.89" fill="#56b8e6" opacity="0.79"/><circle cx="337.04" cy="484.03" r="1.19" fill="#56b8e6" opacity="0.68"/><circle cx="284.96" cy="284.73" r="0.98" fill="#6a7de7" opacity="0.50"/><circle cx="96.26" cy="293.50" r="1.13" fill="#56b8e6" opacity="0.56"/><circle cx="431.14" cy="360.87" r="1.27" fill="#56b8e6" opacity="0.45"/><circle cx="99.41" cy="277.27" r="1.16" fill="#6a7de7" opacity="0.38"/><circle cx="95.65" cy="387.68" r="0.98" fill="#56b8e6" opacity="0.24"/><circle cx="292.92" cy="236.16" r="1.19" fill="#56b8e6" opacity="0.53"/><circle cx="238.91" cy="409.39" r="1.54" fill="#6a7de7" opacity="0.51"/><circle cx="415.62" cy="402.80" r="1.63" fill="#56b8e6" opacity="0.34"/><circle cx="209.94" cy="234.31" r="1.22" fill="#56b8e6" opacity="0.38"/><circle cx="106.62" cy="275.19" r="1.21" fill="#6a7de7" opacity="0.41"/><circle cx="192.12" cy="493.88" r="1.14" fill="#56b8e6" opacity="0.53"/><circle cx="278.50" cy="423.39" r="1.34" fill="#56b8e6" opacity="0.73"/><circle cx="262.36" cy="484.75" r="0.79" fill="#6a7de7" opacity="0.37"/><circle cx="361.59" cy="474.67" r="1.22" fill="#56b8e6" opacity="0.52"/><circle cx="370.46" cy="463.40" r="1.60" fill="#56b8e6" opacity="0.74"/><circle cx="353.10" cy="246.20" r="1.11" fill="#6a7de7" opacity="0.63"/><circle cx="193.38" cy="486.24" r="0.63" fill="#56b8e6" opacity="0.52"/><circle cx="82.45" cy="344.52" r="1.58" fill="#56b8e6" opacity="0.33"/><circle cx="358.49" cy="262.81" r="1.39" fill="#6a7de7" opacity="0.72"/><circle cx="63.16" cy="344.08" r="1.22" fill="#56b8e6" opacity="0.37"/><circle cx="431.67" cy="325.72" r="1.31" fill="#56b8e6" opacity="0.57"/><circle cx="186.22" cy="468.41" r="1.48" fill="#6a7de7" opacity="0.65"/><circle cx="409.87" cy="290.29" r="1.48" fill="#56b8e6" opacity="0.59"/><circle cx="397.51" cy="286.28" r="0.92" fill="#56b8e6" opacity="0.49"/><circle cx="306.98" cy="231.44" r="0.81" fill="#6a7de7" opacity="0.21"/><circle cx="285.51" cy="443.27" r="1.07" fill="#56b8e6" opacity="0.52"/><circle cx="422.38" cy="356.85" r="1.39" fill="#56b8e6" opacity="0.41"/><text x="28" y="50" fill="#95b0c4" font-size="13" text-anchor="start" font-weight="400">PROJECT / OPEN SOURCE</text><text x="28" y="117" font-size="46.0" fill="url(#brand)" font-weight="700">Capsule</text><text x="28" y="163.0" fill="#eefdfc" font-size="21" text-anchor="start" font-weight="400">Gate tool callbacks with</text><text x="28" y="192.4" fill="#eefdfc" font-size="21" text-anchor="start" font-weight="400">explicit capability</text><text x="28" y="221.8" fill="#eefdfc" font-size="21" text-anchor="start" font-weight="400">profiles.</text><path d="M126.5 418.0L204.4 341.0L278.5 369.0L360.2 292.0" fill="none" stroke="#56b8e6" stroke-width="1.5" marker-end="url(#arrow)"/><path d="M126.5 418.0L204.4 341.0L278.5 369.0L360.2 292.0" class="flow" fill="none" stroke="#acf6f2" stroke-width="2"/><circle cx="126.5" cy="418.0" r="12" fill="#acf6f2" opacity=".5" filter="url(#glow)"/><circle class="pulse" cx="126.5" cy="418.0" r="3" fill="#acf6f2"/><circle cx="204.4" cy="341.0" r="12" fill="#acf6f2" opacity=".5" filter="url(#glow)"/><circle class="pulse" cx="204.4" cy="341.0" r="3" fill="#acf6f2"/><circle cx="278.5" cy="369.0" r="12" fill="#acf6f2" opacity=".5" filter="url(#glow)"/><circle class="pulse" cx="278.5" cy="369.0" r="3" fill="#acf6f2"/><circle cx="360.2" cy="292.0" r="12" fill="#acf6f2" opacity=".5" filter="url(#glow)"/><circle class="pulse" cx="360.2" cy="292.0" r="3" fill="#acf6f2"/></svg>
